<?xml version="1.0" encoding="UTF-8" standalone="no"?>
<!-- Created with Inkscape (http://www.inkscape.org/) -->

<svg
   xmlns:dc="http://purl.org/dc/elements/1.1/"
   xmlns:cc="http://creativecommons.org/ns#"
   xmlns:rdf="http://www.w3.org/1999/02/22-rdf-syntax-ns#"
   xmlns:svg="http://www.w3.org/2000/svg"
   xmlns="http://www.w3.org/2000/svg"
   xmlns:sodipodi="http://sodipodi.sourceforge.net/DTD/sodipodi-0.dtd"
   xmlns:inkscape="http://www.inkscape.org/namespaces/inkscape"
   width="16"
   height="16"
   id="svg2"
   version="1.1"
   inkscape:version="0.48.5 r10040"
   sodipodi:docname="htree1.svg">
  <defs
     id="defs4" />
  <sodipodi:namedview
     id="base"
     pagecolor="#ffffff"
     bordercolor="#666666"
     borderopacity="1.0"
     inkscape:pageopacity="0.0"
     inkscape:pageshadow="2"
     inkscape:zoom="24.483572"
     inkscape:cx="9.8008529"
     inkscape:cy="5.9902418"
     inkscape:document-units="px"
     inkscape:current-layer="layer1"
     showgrid="false"
     inkscape:window-width="1026"
     inkscape:window-height="818"
     inkscape:window-x="2179"
     inkscape:window-y="161"
     inkscape:window-maximized="0" />
  <metadata
     id="metadata7">
    <rdf:RDF>
      <cc:Work
         rdf:about="">
        <dc:format>image/svg+xml</dc:format>
        <dc:type
           rdf:resource="http://purl.org/dc/dcmitype/StillImage" />
        <dc:title></dc:title>
      </cc:Work>
    </rdf:RDF>
  </metadata>
  <g
     inkscape:label="Layer 1"
     inkscape:groupmode="layer"
     id="layer1"
     transform="translate(0,-1036.3622)">
    <path
       sodipodi:type="arc"
       style="fill:#d62728;fill-opacity:1;fill-rule:evenodd;stroke:#000000;stroke-width:1px;stroke-linecap:butt;stroke-linejoin:miter;stroke-opacity:1"
       id="path2987"
       sodipodi:cx="52.527931"
       sodipodi:cy="28.067501"
       sodipodi:rx="4.0406103"
       sodipodi:ry="4.0406103"
       d="m 56.568542,28.067501 a 4.0406103,4.0406103 0 1 1 -8.081221,0 4.0406103,4.0406103 0 1 1 8.081221,0 z"
       transform="matrix(0.55058678,0,0,0.55058678,-26.421184,1028.9086)" />
    <path
       transform="matrix(0.55058678,0,0,0.55058678,-15.421184,1029.1586)"
       sodipodi:type="arc"
       style="fill:#ffbb78;fill-opacity:1;fill-rule:evenodd;stroke:#000000;stroke-width:1px;stroke-linecap:butt;stroke-linejoin:miter;stroke-opacity:1"
       id="path2987-1"
       sodipodi:cx="52.527931"
       sodipodi:cy="28.067501"
       sodipodi:rx="4.0406103"
       sodipodi:ry="4.0406103"
       d="m 56.568542,28.067501 a 4.0406103,4.0406103 0 1 1 -8.081221,0 4.0406103,4.0406103 0 1 1 8.081221,0 z" />
    <path
       transform="matrix(0.55058678,0,0,0.55058678,-15.421184,1023.4086)"
       sodipodi:type="arc"
       style="fill:#f777c2;fill-opacity:1;fill-rule:evenodd;stroke:#000000;stroke-width:1px;stroke-linecap:butt;stroke-linejoin:miter;stroke-opacity:1"
       id="path2987-7"
       sodipodi:cx="52.527931"
       sodipodi:cy="28.067501"
       sodipodi:rx="4.0406103"
       sodipodi:ry="4.0406103"
       d="m 56.568542,28.067501 a 4.0406103,4.0406103 0 1 1 -8.081221,0 4.0406103,4.0406103 0 1 1 8.081221,0 z" />
    <path
       transform="matrix(0.55058678,0,0,0.55058678,-20.921184,1031.9086)"
       sodipodi:type="arc"
       style="fill:#ff0000;fill-opacity:1;fill-rule:evenodd;stroke:#000000;stroke-width:1px;stroke-linecap:butt;stroke-linejoin:miter;stroke-opacity:1"
       id="path2987-4"
       sodipodi:cx="52.527931"
       sodipodi:cy="28.067501"
       sodipodi:rx="4.0406103"
       sodipodi:ry="4.0406103"
       d="m 56.568542,28.067501 a 4.0406103,4.0406103 0 1 1 -8.081221,0 4.0406103,4.0406103 0 1 1 8.081221,0 z" />
    <path
       transform="matrix(0.55058678,0,0,0.55058678,-20.921184,1025.9086)"
       sodipodi:type="arc"
       style="fill:#ff9896;fill-opacity:1;fill-rule:evenodd;stroke:#000000;stroke-width:1px;stroke-linecap:butt;stroke-linejoin:miter;stroke-opacity:1"
       id="path2987-0"
       sodipodi:cx="52.527931"
       sodipodi:cy="28.067501"
       sodipodi:rx="4.0406103"
       sodipodi:ry="4.0406103"
       d="m 56.568542,28.067501 a 4.0406103,4.0406103 0 1 1 -8.081221,0 4.0406103,4.0406103 0 1 1 8.081221,0 z" />
    <path
       transform="matrix(0.55058678,0,0,0.55058678,-15.421184,1034.4086)"
       sodipodi:type="arc"
       style="fill:#ff7f0e;fill-rule:evenodd;stroke:#000000;stroke-width:1px;stroke-linecap:butt;stroke-linejoin:miter;stroke-opacity:1"
       id="path2987-9"
       sodipodi:cx="52.527931"
       sodipodi:cy="28.067501"
       sodipodi:rx="4.0406103"
       sodipodi:ry="4.0406103"
       d="m 56.568542,28.067501 a 4.0406103,4.0406103 0 1 1 -8.081221,0 4.0406103,4.0406103 0 1 1 8.081221,0 z" />
    <path
       style="fill:none;stroke:#000000;stroke-width:0.50759971px;stroke-linecap:butt;stroke-linejoin:miter;stroke-opacity:1"
       d="m 4.4534292,1043.2967 1.5931426,-0.869"
       id="path3064"
       inkscape:connector-type="polyline"
       inkscape:connector-curvature="3"
       inkscape:connection-start="#path2987"
       inkscape:connection-start-point="d4"
       inkscape:connection-end="#path2987-0"
       inkscape:connection-end-point="d4" />
    <path
       style="fill:none;stroke:#000000;stroke-width:0.50759971px;stroke-linecap:butt;stroke-linejoin:miter;stroke-opacity:1"
       d="m 9.9902739,1046.3671 1.5194531,-0.7598"
       id="path3068"
       inkscape:connector-type="polyline"
       inkscape:connector-curvature="3"
       inkscape:connection-start="#path2987-4"
       inkscape:connection-start-point="d4"
       inkscape:connection-end="#path2987-1"
       inkscape:connection-end-point="d4" />
    <path
       style="fill:none;stroke:#000000;stroke-width:0.50759971px;stroke-linecap:butt;stroke-linejoin:miter;stroke-opacity:1"
       d="m 10.025794,1040.4414 1.448413,-0.6584"
       id="path3070"
       inkscape:connector-type="polyline"
       inkscape:connector-curvature="3"
       inkscape:connection-start="#path2987-0"
       inkscape:connection-start-point="d4"
       inkscape:connection-end-point="d4"
       inkscape:connection-end="#path2987-7" />
    <path
       transform="matrix(0.55058678,0,0,0.55058678,-8.7852345,1039.6859)"
       sodipodi:type="arc"
       style="fill:#ff7f0e;fill-opacity:1;fill-rule:evenodd;stroke:#000000;stroke-width:1px;stroke-linecap:butt;stroke-linejoin:miter;stroke-opacity:1"
       id="path2987-1-8"
       sodipodi:cx="52.527931"
       sodipodi:cy="28.067501"
       sodipodi:rx="4.0406103"
       sodipodi:ry="4.0406103"
       d="m 56.568542,28.067501 c 0,2.231568 -1.809043,4.04061 -4.040611,4.04061 -2.231567,0 -4.04061,-1.809042 -4.04061,-4.04061 0,-2.231567 1.809043,-4.04061 4.04061,-4.04061 2.231568,0 4.040611,1.809043 4.040611,4.04061 z" />
    <path
       transform="matrix(0.55058678,0,0,0.55058678,-14.013229,1039.8901)"
       sodipodi:type="arc"
       style="fill:#ff0000;fill-rule:evenodd;stroke:#000000;stroke-width:1px;stroke-linecap:butt;stroke-linejoin:miter;stroke-opacity:1"
       id="path2987-9-2"
       sodipodi:cx="52.527931"
       sodipodi:cy="28.067501"
       sodipodi:rx="4.0406103"
       sodipodi:ry="4.0406103"
       d="m 56.568542,28.067501 c 0,2.231568 -1.809043,4.04061 -4.040611,4.04061 -2.231567,0 -4.04061,-1.809042 -4.04061,-4.04061 0,-2.231567 1.809043,-4.04061 4.04061,-4.04061 2.231568,0 4.040611,1.809043 4.040611,4.04061 z" />
    <path
       transform="matrix(0.55058678,0,0,0.55058678,-19.363756,1039.8902)"
       sodipodi:type="arc"
       style="fill:#d62728;fill-opacity:1;fill-rule:evenodd;stroke:#000000;stroke-width:1px;stroke-linecap:butt;stroke-linejoin:miter;stroke-opacity:1"
       id="path2987-4-4"
       sodipodi:cx="52.527931"
       sodipodi:cy="28.067501"
       sodipodi:rx="4.0406103"
       sodipodi:ry="4.0406103"
       d="m 56.568542,28.067501 c 0,2.231568 -1.809043,4.04061 -4.040611,4.04061 -2.231567,0 -4.04061,-1.809042 -4.04061,-4.04061 0,-2.231567 1.809043,-4.04061 4.04061,-4.04061 2.231568,0 4.040611,1.809043 4.040611,4.04061 z" />
    <path
       sodipodi:type="arc"
       style="fill:#ffbb78;fill-opacity:1;fill-rule:evenodd;stroke:#000000;stroke-width:1px;stroke-linecap:butt;stroke-linejoin:miter;stroke-opacity:1"
       id="path2987-5"
       sodipodi:cx="52.527931"
       sodipodi:cy="28.067501"
       sodipodi:rx="4.0406103"
       sodipodi:ry="4.0406103"
       d="m 56.568542,28.067501 c 0,2.231568 -1.809043,4.04061 -4.040611,4.04061 -2.231567,0 -4.04061,-1.809042 -4.04061,-4.04061 0,-2.231567 1.809043,-4.04061 4.04061,-4.04061 2.231568,0 4.040611,1.809043 4.040611,4.04061 z"
       transform="matrix(0.55058678,0,0,0.55058678,-24.428376,1039.8085)" />
    <path
       style="fill:none;stroke:#000000;stroke-width:0.57999998;stroke-linecap:butt;stroke-linejoin:miter;stroke-miterlimit:4;stroke-opacity:1;stroke-dasharray:none"
       d="M 4.4534292,9.0655016 6.0465718,9.9344885"
       id="path4001"
       inkscape:connector-type="polyline"
       inkscape:connector-curvature="3"
       inkscape:connection-start="#path2987"
       inkscape:connection-start-point="d4"
       inkscape:connection-end="#path2987-4"
       inkscape:connection-end-point="d4"
       transform="translate(0,1036.3622)" />
    <path
       style="fill:none;stroke:#000000;stroke-width:0.57999998;stroke-linecap:butt;stroke-linejoin:miter;stroke-miterlimit:4;stroke-opacity:1;stroke-dasharray:none"
       d="m 10.025794,11.92081 1.448413,0.65837"
       id="path4003"
       inkscape:connector-type="polyline"
       inkscape:connector-curvature="3"
       inkscape:connection-start="#path2987-4"
       inkscape:connection-start-point="d4"
       inkscape:connection-end="#path2987-9"
       inkscape:connection-end-point="d4"
       transform="translate(0,1036.3622)" />
  </g>
</svg>
