<?xml version="1.0" encoding="UTF-8" standalone="no"?>
<!-- Created with Inkscape (http://www.inkscape.org/) -->

<svg
   xmlns:dc="http://purl.org/dc/elements/1.1/"
   xmlns:cc="http://creativecommons.org/ns#"
   xmlns:rdf="http://www.w3.org/1999/02/22-rdf-syntax-ns#"
   xmlns:svg="http://www.w3.org/2000/svg"
   xmlns="http://www.w3.org/2000/svg"
   version="1.1"
   width="16"
   height="16"
   id="svg2">
  <defs
     id="defs4" />
  <metadata
     id="metadata7">
    <rdf:RDF>
      <cc:Work
         rdf:about="">
        <dc:format>image/svg+xml</dc:format>
        <dc:type
           rdf:resource="http://purl.org/dc/dcmitype/StillImage" />
        <dc:title></dc:title>
      </cc:Work>
    </rdf:RDF>
  </metadata>
  <g
     transform="translate(0,-1036.3622)"
     id="layer1">
    <path
       d="m 56.568542,28.067501 a 4.0406103,4.0406103 0 1 1 -8.081221,0 4.0406103,4.0406103 0 1 1 8.081221,0 z"
       transform="matrix(0.55058678,0,0,0.55058678,-26.421184,1028.9086)"
       id="path2987"
       style="fill:#d62728;fill-opacity:1;fill-rule:evenodd;stroke:#000000;stroke-width:1px;stroke-linecap:butt;stroke-linejoin:miter;stroke-opacity:1" />
    <path
       d="m 56.568542,28.067501 a 4.0406103,4.0406103 0 1 1 -8.081221,0 4.0406103,4.0406103 0 1 1 8.081221,0 z"
       transform="matrix(0.55058678,0,0,0.55058678,-17.921184,1034.4086)"
       id="path2987-1"
       style="fill:#ffbb78;fill-opacity:1;fill-rule:evenodd;stroke:#000000;stroke-width:1px;stroke-linecap:butt;stroke-linejoin:miter;stroke-opacity:1" />
    <path
       d="m 56.568542,28.067501 a 4.0406103,4.0406103 0 1 1 -8.081221,0 4.0406103,4.0406103 0 1 1 8.081221,0 z"
       transform="matrix(0.55058678,0,0,0.55058678,-17.921184,1023.4086)"
       id="path2987-7"
       style="fill:#f777c2;fill-opacity:1;fill-rule:evenodd;stroke:#000000;stroke-width:1px;stroke-linecap:butt;stroke-linejoin:miter;stroke-opacity:1" />
    <path
       d="m 56.568542,28.067501 a 4.0406103,4.0406103 0 1 1 -8.081221,0 4.0406103,4.0406103 0 1 1 8.081221,0 z"
       transform="matrix(0.55058678,0,0,0.55058678,-15.421184,1028.9086)"
       id="path2987-4"
       style="fill:#ff0000;fill-opacity:1;fill-rule:evenodd;stroke:#000000;stroke-width:1px;stroke-linecap:butt;stroke-linejoin:miter;stroke-opacity:1" />
    <path
       d="m 56.568542,28.067501 a 4.0406103,4.0406103 0 1 1 -8.081221,0 4.0406103,4.0406103 0 1 1 8.081221,0 z"
       transform="matrix(0.55058678,0,0,0.55058678,-23.921184,1023.4086)"
       id="path2987-0"
       style="fill:#ff9896;fill-opacity:1;fill-rule:evenodd;stroke:#000000;stroke-width:1px;stroke-linecap:butt;stroke-linejoin:miter;stroke-opacity:1" />
    <path
       d="m 56.568542,28.067501 a 4.0406103,4.0406103 0 1 1 -8.081221,0 4.0406103,4.0406103 0 1 1 8.081221,0 z"
       transform="matrix(0.55058678,0,0,0.55058678,-23.921184,1034.4086)"
       id="path2987-9"
       style="fill:#ff7f0e;fill-rule:evenodd;stroke:#000000;stroke-width:1px;stroke-linecap:butt;stroke-linejoin:miter;stroke-opacity:1" />
    <path
       d="m 4.7247071,1044.3622 6.5505869,0"
       id="path3062"
       style="fill:none;stroke:#000000;stroke-width:0.50759971px;stroke-linecap:butt;stroke-linejoin:miter;stroke-opacity:1" />
    <path
       d="m 3.4208158,1042.3364 0.6583694,-1.4484"
       id="path3064"
       style="fill:none;stroke:#000000;stroke-width:0.50759971px;stroke-linecap:butt;stroke-linejoin:miter;stroke-opacity:1" />
    <path
       d="m 11.631982,1045.5709 -4.7639627,3.0826"
       id="path3066"
       style="fill:none;stroke:#000000;stroke-width:0.50759971px;stroke-linecap:butt;stroke-linejoin:miter;stroke-opacity:1" />
    <path
       d="m 12.579185,1046.388 -0.658369,1.4484"
       id="path3068"
       style="fill:none;stroke:#000000;stroke-width:0.50759971px;stroke-linecap:butt;stroke-linejoin:miter;stroke-opacity:1" />
    <path
       d="m 7.2247071,1038.8622 1.5505868,0"
       id="path3070"
       style="fill:none;stroke:#000000;stroke-width:0.50759971px;stroke-linecap:butt;stroke-linejoin:miter;stroke-opacity:1" />
    <path
       d="m 56.568542,28.067501 a 4.0406103,4.0406103 0 1 1 -8.081221,0 4.0406103,4.0406103 0 1 1 8.081221,0 z"
       transform="matrix(0.55058678,0,0,0.55058678,-8.7852345,1039.6859)"
       id="path2987-1-8"
       style="fill:#ff7f0e;fill-opacity:1;fill-rule:evenodd;stroke:#000000;stroke-width:1px;stroke-linecap:butt;stroke-linejoin:miter;stroke-opacity:1" />
    <path
       d="m 56.568542,28.067501 a 4.0406103,4.0406103 0 1 1 -8.081221,0 4.0406103,4.0406103 0 1 1 8.081221,0 z"
       transform="matrix(0.55058678,0,0,0.55058678,-14.013229,1039.8901)"
       id="path2987-9-2"
       style="fill:#ff0000;fill-rule:evenodd;stroke:#000000;stroke-width:1px;stroke-linecap:butt;stroke-linejoin:miter;stroke-opacity:1" />
    <path
       d="m 56.568542,28.067501 a 4.0406103,4.0406103 0 1 1 -8.081221,0 4.0406103,4.0406103 0 1 1 8.081221,0 z"
       transform="matrix(0.55058678,0,0,0.55058678,-19.363756,1039.8902)"
       id="path2987-4-4"
       style="fill:#d62728;fill-opacity:1;fill-rule:evenodd;stroke:#000000;stroke-width:1px;stroke-linecap:butt;stroke-linejoin:miter;stroke-opacity:1" />
    <path
       d="m 56.568542,28.067501 a 4.0406103,4.0406103 0 1 1 -8.081221,0 4.0406103,4.0406103 0 1 1 8.081221,0 z"
       transform="matrix(0.55058678,0,0,0.55058678,-24.428376,1039.8085)"
       id="path2987-5"
       style="fill:#ffbb78;fill-opacity:1;fill-rule:evenodd;stroke:#000000;stroke-width:1px;stroke-linecap:butt;stroke-linejoin:miter;stroke-opacity:1" />
    <path
       d="M 1.9196544,7.6270386 C 1.3306865,8.0623628 -0.79578188,5.8443127 -1.5281441,5.8503106 -2.2605064,5.8563086 -4.350361,8.1088898 -4.94638,7.6832705 -5.542399,7.2576513 -4.0900228,4.5498445 -4.3220396,3.8551801 -4.5540564,3.1605157 -7.342189,1.8690318 -7.1215811,1.1706604 c 0.220608,-0.69837137 3.2446942,-0.1538379 3.8336622,-0.58916201 0.588968,-0.43532418 0.9556618,-3.48608639 1.6880241,-3.49208439 0.73236221,-0.006 1.14897409,3.03834902 1.74499308,3.46396829 C 0.7411173,0.97900158 3.7558792,0.38501079 3.987896,1.0796752 4.2199128,1.7743396 1.4533069,3.111316 1.2326989,3.8096873 1.0120909,4.5080587 2.5086224,7.1917144 1.9196544,7.6270386 z"
       transform="matrix(1.3247827,0.55623978,-0.58175042,1.3855408,36.606944,1042.1027)"
       id="path5125"
       style="fill:#d62728;fill-opacity:1;stroke-width:0.57999998;stroke-miterlimit:4;stroke-dasharray:none" />
  </g>
</svg>
