<?xml version="1.0" encoding="UTF-8" standalone="no"?>
<!-- Created with Inkscape (http://www.inkscape.org/) -->

<svg
   xmlns:dc="http://purl.org/dc/elements/1.1/"
   xmlns:cc="http://creativecommons.org/ns#"
   xmlns:rdf="http://www.w3.org/1999/02/22-rdf-syntax-ns#"
   xmlns:svg="http://www.w3.org/2000/svg"
   xmlns="http://www.w3.org/2000/svg"
   version="1.1"
   width="16"
   height="16"
   id="svg2">
  <defs
     id="defs4" />
  <metadata
     id="metadata7">
    <rdf:RDF>
      <cc:Work
         rdf:about="">
        <dc:format>image/svg+xml</dc:format>
        <dc:type
           rdf:resource="http://purl.org/dc/dcmitype/StillImage" />
        <dc:title></dc:title>
      </cc:Work>
    </rdf:RDF>
  </metadata>
  <g
     transform="translate(0,-1036.3622)"
     id="layer1">
    <path
       d="m 56.568542,28.067501 a 4.0406103,4.0406103 0 1 1 -8.081221,0 4.0406103,4.0406103 0 1 1 8.081221,0 z"
       transform="matrix(0.55058678,0,0,0.55058678,-20.921184,1023.4086)"
       id="path2987"
       style="fill:#d62728;fill-opacity:1;fill-rule:evenodd;stroke:#000000;stroke-width:1px;stroke-linecap:butt;stroke-linejoin:miter;stroke-opacity:1" />
    <path
       d="m 56.568542,28.067501 a 4.0406103,4.0406103 0 1 1 -8.081221,0 4.0406103,4.0406103 0 1 1 8.081221,0 z"
       transform="matrix(0.55058678,0,0,0.55058678,-21.171184,1034.4085)"
       id="path2987-1"
       style="fill:#ffbb78;fill-opacity:1;fill-rule:evenodd;stroke:#000000;stroke-width:1px;stroke-linecap:butt;stroke-linejoin:miter;stroke-opacity:1" />
    <path
       d="m 56.568542,28.067501 a 4.0406103,4.0406103 0 1 1 -8.081221,0 4.0406103,4.0406103 0 1 1 8.081221,0 z"
       transform="matrix(0.55058678,0,0,0.55058678,-15.421184,1034.4086)"
       id="path2987-7"
       style="fill:#f777c2;fill-opacity:1;fill-rule:evenodd;stroke:#000000;stroke-width:1px;stroke-linecap:butt;stroke-linejoin:miter;stroke-opacity:1" />
    <path
       d="m 56.568542,28.067501 a 4.0406103,4.0406103 0 1 1 -8.081221,0 4.0406103,4.0406103 0 1 1 8.081221,0 z"
       transform="matrix(0.55058678,0,0,0.55058678,-23.921184,1028.4086)"
       id="path2987-4"
       style="fill:#ff0000;fill-opacity:1;fill-rule:evenodd;stroke:#000000;stroke-width:1px;stroke-linecap:butt;stroke-linejoin:miter;stroke-opacity:1" />
    <path
       d="m 56.568542,28.067501 a 4.0406103,4.0406103 0 1 1 -8.081221,0 4.0406103,4.0406103 0 1 1 8.081221,0 z"
       transform="matrix(0.55058678,0,0,0.55058678,-17.421184,1028.4086)"
       id="path2987-0"
       style="fill:#ff9896;fill-opacity:1;fill-rule:evenodd;stroke:#000000;stroke-width:1px;stroke-linecap:butt;stroke-linejoin:miter;stroke-opacity:1" />
    <path
       d="m 56.568542,28.067501 a 4.0406103,4.0406103 0 1 1 -8.081221,0 4.0406103,4.0406103 0 1 1 8.081221,0 z"
       transform="matrix(0.55058678,0,0,0.55058678,-26.421186,1034.4086)"
       id="path2987-9"
       style="fill:#ff7f0e;fill-rule:evenodd;stroke:#000000;stroke-width:1px;stroke-linecap:butt;stroke-linejoin:miter;stroke-opacity:1" />
    <path
       d="m 6.8552259,1040.7702 -0.7104508,1.184"
       id="path3062"
       style="fill:none;stroke:#000000;stroke-width:0.50759971px;stroke-linecap:butt;stroke-linejoin:miter;stroke-opacity:1" />
    <path
       d="m 9.275895,1040.6849 0.948211,1.3546"
       id="path3064"
       style="fill:none;stroke:#000000;stroke-width:0.50759971px;stroke-linecap:butt;stroke-linejoin:miter;stroke-opacity:1" />
    <path
       d="m 4.1441204,1045.9163 -0.7882418,1.8918"
       id="path3066"
       style="fill:none;stroke:#000000;stroke-width:0.50759971px;stroke-linecap:butt;stroke-linejoin:miter;stroke-opacity:1" />
    <path
       d="m 5.9271727,1045.8851 0.8956557,1.9541"
       id="path3068"
       style="fill:none;stroke:#000000;stroke-width:0.50759971px;stroke-linecap:butt;stroke-linejoin:miter;stroke-opacity:1" />
    <path
       d="m 12.203705,1045.9733 0.592591,1.7778"
       id="path3070"
       style="fill:none;stroke:#000000;stroke-width:0.50759971px;stroke-linecap:butt;stroke-linejoin:miter;stroke-opacity:1" />
    <path
       d="m 56.568542,28.067501 a 4.0406103,4.0406103 0 1 1 -8.081221,0 4.0406103,4.0406103 0 1 1 8.081221,0 z"
       transform="matrix(0.55058678,0,0,0.55058678,-8.7852345,1039.6859)"
       id="path2987-1-8"
       style="fill:#ff7f0e;fill-opacity:1;fill-rule:evenodd;stroke:#000000;stroke-width:1px;stroke-linecap:butt;stroke-linejoin:miter;stroke-opacity:1" />
    <path
       d="m 56.568542,28.067501 a 4.0406103,4.0406103 0 1 1 -8.081221,0 4.0406103,4.0406103 0 1 1 8.081221,0 z"
       transform="matrix(0.55058678,0,0,0.55058678,-14.013229,1039.8901)"
       id="path2987-9-2"
       style="fill:#ff0000;fill-rule:evenodd;stroke:#000000;stroke-width:1px;stroke-linecap:butt;stroke-linejoin:miter;stroke-opacity:1" />
    <path
       d="m 56.568542,28.067501 a 4.0406103,4.0406103 0 1 1 -8.081221,0 4.0406103,4.0406103 0 1 1 8.081221,0 z"
       transform="matrix(0.55058678,0,0,0.55058678,-19.363756,1039.8902)"
       id="path2987-4-4"
       style="fill:#d62728;fill-opacity:1;fill-rule:evenodd;stroke:#000000;stroke-width:1px;stroke-linecap:butt;stroke-linejoin:miter;stroke-opacity:1" />
    <path
       d="m 56.568542,28.067501 a 4.0406103,4.0406103 0 1 1 -8.081221,0 4.0406103,4.0406103 0 1 1 8.081221,0 z"
       transform="matrix(0.55058678,0,0,0.55058678,-24.428376,1039.8085)"
       id="path2987-5"
       style="fill:#ffbb78;fill-opacity:1;fill-rule:evenodd;stroke:#000000;stroke-width:1px;stroke-linecap:butt;stroke-linejoin:miter;stroke-opacity:1" />
  </g>
</svg>
